<?xml version="1.0" encoding="UTF-8"?>
<svg id="Speech_Bubble" xmlns="http://www.w3.org/2000/svg" viewBox="0 0 750 500">
  <defs>
    <style>
      .cls-1 {
        fill: #f55571;
      }

      .cls-2, .cls-3, .cls-4, .cls-5, .cls-6, .cls-7, .cls-8, .cls-9, .cls-10, .cls-11, .cls-12 {
        stroke-linecap: round;
        stroke-linejoin: round;
        stroke-width: 1.5px;
      }

      .cls-2, .cls-4, .cls-5, .cls-7, .cls-12 {
        stroke: #ff95fb;
      }

      .cls-2, .cls-4, .cls-6, .cls-8, .cls-10, .cls-11 {
        fill: none;
      }

      .cls-3, .cls-13, .cls-14, .cls-5, .cls-12 {
        fill: #fff;
      }

      .cls-3, .cls-10 {
        stroke: #303030;
      }

      .cls-4, .cls-12 {
        stroke-dasharray: 8 5;
      }

      .cls-15 {
        fill: #eebc3c;
      }

      .cls-13 {
        stroke: #f55571;
        stroke-miterlimit: 10;
      }

      .cls-16 {
        fill: #303030;
      }

      .cls-17 {
        fill: #00826f;
      }

      .cls-6 {
        stroke: #8476d9;
      }

      .cls-7, .cls-9 {
        fill: #393b45;
      }

      .cls-18 {
        fill: #3d3d4e;
      }

      .cls-19 {
        fill: #ffc4b0;
      }

      .cls-20 {
        fill: #ff95fb;
      }

      .cls-8, .cls-9 {
        stroke: #fff;
      }

      .cls-11 {
        stroke: #00826f;
      }

      .cls-21 {
        fill: #8476d9;
      }
    </style>
  </defs>
  <g id="Window-2" data-name="Window">
    <g id="Window-3" data-name="Window">
      <path class="cls-8" d="M134.79,28.78h503.15c10,0,18.12,8.12,18.12,18.12v328.64c0,10-8.12,18.12-18.12,18.12H134.79c-10,0-18.12-8.12-18.12-18.12V46.9c0-10,8.12-18.12,18.12-18.12Z"/>
      <g>
        <path class="cls-2" d="M638.11,28.78H134.62c-9.91,0-17.95,8.04-17.95,17.95v14.79h539.39v-14.79c0-9.91-8.04-17.95-17.95-17.95Z"/>
        <g>
          <path class="cls-21" d="M638.92,45.15c0,4.04-3.27,7.31-7.31,7.31s-7.31-3.27-7.31-7.31,3.27-7.31,7.31-7.31,7.31,3.27,7.31,7.31Z"/>
          <path class="cls-1" d="M612.32,45.15c0,4.04-3.27,7.31-7.31,7.31s-7.31-3.27-7.31-7.31,3.27-7.31,7.31-7.31,7.31,3.27,7.31,7.31Z"/>
          <path class="cls-14" d="M585.71,45.15c0,4.04-3.27,7.31-7.31,7.31s-7.31-3.27-7.31-7.31,3.27-7.31,7.31-7.31,7.31,3.27,7.31,7.31Z"/>
        </g>
      </g>
    </g>
    <g>
      <g>
        <rect class="cls-4" x="343.77" y="191.69" width="291.39" height="87.04" rx="8.16" ry="8.16"/>
        <line class="cls-12" x1="631.21" y1="192.87" x2="347.72" y2="277.55"/>
        <line class="cls-12" x1="631.21" y1="277.55" x2="347.72" y2="192.87"/>
      </g>
      <g>
        <g>
          <rect class="cls-2" x="552.91" y="80.99" width="82.25" height="16.65" rx="8.33" ry="8.33"/>
          <g>
            <path class="cls-2" d="M624.07,88.49c0,1.81-1.47,3.28-3.28,3.28s-3.28-1.47-3.28-3.28,1.47-3.28,3.28-3.28,3.28,1.47,3.28,3.28Z"/>
            <line class="cls-5" x1="623.11" y1="90.81" x2="625.72" y2="93.42"/>
          </g>
        </g>
        <path class="cls-1" d="M482.58,90.71h48.21c.77,0,1.4-.63,1.4-1.4h0c0-.77-.63-1.4-1.4-1.4h-48.21c-.77,0-1.4.63-1.4,1.4h0c0,.77.63,1.4,1.4,1.4Z"/>
        <path class="cls-1" d="M413.37,90.71h48.21c.77,0,1.4-.63,1.4-1.4h0c0-.77-.63-1.4-1.4-1.4h-48.21c-.77,0-1.4.63-1.4,1.4h0c0,.77.63,1.4,1.4,1.4Z"/>
        <path class="cls-1" d="M344.16,90.71h48.21c.77,0,1.4-.63,1.4-1.4h0c0-.77-.63-1.4-1.4-1.4h-48.21c-.77,0-1.4.63-1.4,1.4h0c0,.77.63,1.4,1.4,1.4Z"/>
        <path class="cls-1" d="M274.95,90.71h48.21c.77,0,1.4-.63,1.4-1.4h0c0-.77-.63-1.4-1.4-1.4h-48.21c-.77,0-1.4.63-1.4,1.4h0c0,.77.63,1.4,1.4,1.4Z"/>
        <path class="cls-1" d="M168.53,89.12h-1.49v7.74c0,.5-.41.91-.91.91h-3.83v-5.93h-5.35v5.93h-3.83c-.5,0-.91-.41-.91-.91v-7.74h-1.49c-.54,0-.78-.68-.36-1.02l8.69-7.04c.34-.27.83-.27,1.17,0l8.69,7.04c.42.35.18,1.02-.36,1.02Z"/>
      </g>
      <g>
        <path class="cls-21" d="M522.45,123.06h109.48c1.79,0,3.24-1.45,3.24-3.24h0c0-1.79-1.45-3.24-3.24-3.24h-109.48c-1.79,0-3.24,1.45-3.24,3.24h0c0,1.79,1.45,3.24,3.24,3.24Z"/>
        <g>
          <line class="cls-8" x1="635.16" y1="135.51" x2="413.69" y2="135.51"/>
          <line class="cls-8" x1="635.16" y1="144.73" x2="440.88" y2="144.73"/>
          <line class="cls-8" x1="635.16" y1="153.96" x2="422.71" y2="153.96"/>
          <line class="cls-8" x1="635.16" y1="163.18" x2="413.69" y2="163.18"/>
          <line class="cls-8" x1="635.16" y1="172.41" x2="554.79" y2="172.41"/>
        </g>
      </g>
    </g>
  </g>
  <g id="Color_Palette-2" data-name="Color_Palette">
    <rect class="cls-16" x="369.56" y="308.54" width="25.88" height="25.88"/>
    <rect class="cls-14" x="395.44" y="308.54" width="25.88" height="25.88"/>
    <rect class="cls-16" x="395.44" y="308.54" width="25.88" height="1.16"/>
    <rect class="cls-16" x="395.44" y="333.27" width="25.88" height="1.16"/>
    <rect class="cls-1" x="421.32" y="308.54" width="25.88" height="25.88"/>
    <rect class="cls-20" x="447.2" y="308.54" width="25.88" height="25.88"/>
    <rect class="cls-21" x="473.07" y="308.54" width="25.88" height="25.88"/>
  </g>
  <g id="Text_Icon-2" data-name="Text_Icon">
    <rect class="cls-21" x="545.74" y="248.95" width="70.81" height="91.47" rx="7.62" ry="7.62"/>
    <path class="cls-14" d="M605.16,268.74v14.05h-1.38c-.82-3.24-1.72-5.57-2.72-6.98-.99-1.42-2.36-2.55-4.09-3.39-.97-.46-2.67-.69-5.09-.69h-3.87v40.03c0,2.65.15,4.31.44,4.98.29.66.87,1.24,1.72,1.74.85.5,2.02.75,3.5.75h1.72v1.42h-27.17v-1.42h1.72c1.5,0,2.72-.27,3.64-.8.66-.36,1.19-.97,1.57-1.84.28-.61.42-2.22.42-4.82v-40.03h-3.75c-3.5,0-6.03.74-7.62,2.22-2.22,2.07-3.62,5.01-4.21,8.84h-1.45v-14.05h46.61Z"/>
  </g>
  <g id="Code_Icon">
    <path class="cls-7" d="M609.04,362.04h75.9c6.17,0,11.17,5.01,11.17,11.17v36.62c0,6.17-5.01,11.17-11.17,11.17h-75.9c-6.17,0-11.17-5.01-11.17-11.17v-36.62c0-6.17,5.01-11.17,11.17-11.17Z"/>
  </g>
  <g>
    <path class="cls-14" d="M640.12,381.5h3.89c.28,0,.51.23.51.51v13.21c0,4.33-2.64,6.63-6.63,6.63s-6.8-2.22-7.02-6.42c-.01-.29.22-.52.51-.52h3.87c.26,0,.48.2.5.46.12,1.41.84,2.09,1.99,2.09s1.87-.75,1.87-2.24v-13.21c0-.28.23-.51.51-.51Z"/>
    <path class="cls-14" d="M655.77,401.84c-4.12,0-7.39-1.95-7.82-5.64-.04-.31.2-.58.51-.58h4.23c.23,0,.45.16.49.38.26,1.29,1.18,1.91,2.44,1.91,1.43,0,2.35-.72,2.35-1.89,0-3.73-10.07-1.72-10.02-8.87,0-3.82,3.13-5.94,7.35-5.94s7.04,1.96,7.49,5.44c.04.31-.2.59-.51.59h-4.31c-.23,0-.44-.16-.49-.39-.23-1.06-1.09-1.68-2.27-1.71-1.18-.03-2.07.57-2.07,1.84,0,3.5,9.96,1.92,9.96,8.67,0,3.39-2.64,6.2-7.35,6.2Z"/>
  </g>
  <g id="Code_Icon-2" data-name="Code_Icon">
    <path class="cls-7" d="M494.24,362.04h75.9c6.17,0,11.17,5.01,11.17,11.17v36.62c0,6.17-5.01,11.17-11.17,11.17h-75.9c-6.17,0-11.17-5.01-11.17-11.17v-36.62c0-6.17,5.01-11.17,11.17-11.17Z"/>
  </g>
  <g>
    <path class="cls-14" d="M514.83,381.27c4.54,0,8.02,2.42,9.35,6.37.11.34-.13.69-.48.69h-4.41c-.19,0-.35-.11-.45-.27-.86-1.54-2.31-2.31-4.08-2.31-3.01,0-5.08,2.24-5.08,5.8s2.07,5.8,5.08,5.8c1.76,0,3.22-.77,4.08-2.31.09-.16.26-.27.45-.27h4.41c.35,0,.59.35.48.69-1.33,3.95-4.82,6.34-9.35,6.34-5.94,0-10.13-4.22-10.13-10.25s4.19-10.27,10.13-10.27Z"/>
    <path class="cls-14" d="M534.69,401.84c-4.12,0-7.39-1.95-7.82-5.64-.04-.31.2-.58.51-.58h4.23c.23,0,.45.16.49.38.26,1.29,1.18,1.91,2.44,1.91,1.43,0,2.35-.72,2.35-1.89,0-3.73-10.07-1.72-10.02-8.87,0-3.82,3.13-5.94,7.35-5.94s7.04,1.96,7.49,5.44c.04.31-.2.59-.51.59h-4.31c-.23,0-.44-.16-.49-.39-.23-1.06-1.09-1.68-2.27-1.71-1.18-.03-2.07.57-2.07,1.84,0,3.5,9.96,1.92,9.96,8.67,0,3.39-2.64,6.2-7.35,6.2Z"/>
    <path class="cls-14" d="M552.34,401.84c-4.12,0-7.39-1.95-7.82-5.64-.04-.31.2-.58.51-.58h4.23c.23,0,.45.16.49.38.26,1.29,1.18,1.91,2.44,1.91,1.43,0,2.35-.72,2.35-1.89,0-3.73-10.07-1.72-10.02-8.87,0-3.82,3.13-5.94,7.35-5.94s7.04,1.96,7.49,5.44c.04.31-.2.59-.51.59h-4.31c-.23,0-.44-.16-.49-.39-.23-1.06-1.09-1.68-2.27-1.71-1.18-.03-2.07.57-2.07,1.84,0,3.5,9.96,1.92,9.96,8.67,0,3.39-2.64,6.2-7.35,6.2Z"/>
  </g>
  <g id="Code_Icon-3" data-name="Code_Icon">
    <path class="cls-7" d="M379.44,362.04h75.9c6.17,0,11.17,5.01,11.17,11.17v36.62c0,6.17-5.01,11.17-11.17,11.17h-75.9c-6.17,0-11.17-5.01-11.17-11.17v-36.62c0-6.17,5.01-11.17,11.17-11.17Z"/>
  </g>
  <g>
    <path class="cls-14" d="M391.61,393.3h-6.61c-.28,0-.51.23-.51.51v7.27c0,.28-.23.51-.51.51h-3.89c-.28,0-.51-.23-.51-.51v-19.13c0-.28.23-.51.51-.51h3.89c.28,0,.51.23.51.51v6.87c0,.28.23.51.51.51h6.61c.28,0,.51-.23.51-.51v-6.87c0-.28.23-.51.51-.51h3.89c.28,0,.51.23.51.51v19.13c0,.28-.23.51-.51.51h-3.89c-.28,0-.51-.23-.51-.51v-7.27c0-.28-.23-.51-.51-.51Z"/>
    <path class="cls-14" d="M399.97,381.45h14.56c.28,0,.51.23.51.51v2.91c0,.28-.23.51-.51.51h-4.32c-.28,0-.51.23-.51.51v15.19c0,.28-.23.51-.51.51h-3.89c-.28,0-.51-.23-.51-.51v-15.19c0-.28-.23-.51-.51-.51h-4.32c-.28,0-.51-.23-.51-.51v-2.91c0-.28.23-.51.51-.51Z"/>
    <path class="cls-14" d="M418.03,381.45h4.94c.21,0,.39.13.47.32l5.05,12.46c.17.43.77.42.95,0l5-12.45c.08-.19.26-.32.47-.32h4.91c.28,0,.51.23.51.51v19.13c0,.28-.23.51-.51.51h-3.89c-.28,0-.51-.23-.51-.51v-8.74c0-.57-.79-.71-.99-.18l-3.39,9.1c-.07.2-.26.33-.48.33h-3.25c-.21,0-.4-.13-.48-.33l-3.42-9.14c-.2-.53-.99-.39-.99.18v8.78c0,.28-.23.51-.51.51h-3.89c-.28,0-.51-.23-.51-.51v-19.13c0-.28.23-.51.51-.51Z"/>
    <path class="cls-14" d="M448.77,381.96v15.34c0,.28.23.51.51.51h5.41c.28,0,.51.23.51.51v2.77c0,.28-.23.51-.51.51h-10.32c-.28,0-.51-.23-.51-.51v-19.13c0-.28.23-.51.51-.51h3.89c.28,0,.51.23.51.51Z"/>
  </g>
  <g id="Character-2" data-name="Character">
    <g id="Character-3" data-name="Character">
      <g id="Legs">
        <g>
          <path class="cls-16" d="M252.92,330.63c-11.13,3.29-30.09-2.94-47.51-4.96-17.42-2.03-41.67-4.07-67.65,3.22-17.95,5.04-20.39,12.65-20.39,12.65,0,0,23.73,66.28,91.66,67.99,67.93,1.72,43.88-78.9,43.88-78.9Z"/>
          <path class="cls-11" d="M211.06,341.53c4.34,21.16,5.3,40.27,3.06,56.05"/>
        </g>
        <g id="Leg">
          <g>
            <path class="cls-19" d="M194.99,450.09c8.47-5.59,20.56-12.91,33.7-20.07,13.14-7.15,30.4-10.77,50.79-20.49,20.39-9.72,28.21-14.36,33.49-25.47,4.19-8.81,6.5-25.37.41-32.07-17.17-18.86-46.14,1.87-58.26,12.32-8.49,7.32-14.99,16.42-22.39,24.77-7.5,8.47-18.3,14.28-28.52,18.64-6.05,2.58-13.13,3.77-19.26,6.12-8,3.07-16.7,3.17-24.91,5.53-2.11.61-4.2,1.4-6.04,2.6-3.24,2.11-5.57,5.51-6.52,9.24-.98,3.9-1.88,8.26-1.54,12.3.17,2.07.59,4.15,1.47,6.03,3.66,7.78,11.83,12.33,20.31,12.05,10.07-.33,19.13-6.15,27.28-11.53Z"/>
            <path class="cls-3" d="M229.17,393.49c.05,5.33,3.95,22.29,16.38,29.1l7.37-2.15s.18,3.7-5.04,6.23c-5.22,2.52-6.22.63-11.5,3.74-4.68,2.75-23.34,12.56-27.83,15.09-7.36,4.14-14.97,7.86-22.76,11.12-6.89,2.89-14.33,5.96-21.97,5.2-9.64-.96-14.46-9.11-16.2-17.86-1.4-7.05-1.03-15.35,4.35-20.11,4.64-4.11,7.78-5.67,16.1-6.53,5.56-.58,12.06-1.29,16.97-3,8.78-3.04,12.83-4.82,22.49-9.92,7.22-3.8,11.63-7.23,15.91-12.27,3.57-4.21,7.14-4.76,8.51-3.22l-2.79,4.57Z"/>
            <g>
              <path class="cls-1" d="M198.51,452.3c-2.54,1.54-4.92,3.17-7.36,5.05-3.49,2.69-7.03,5.41-11.04,7.41-6.39,3.18-12.66,5.6-18.35,3.03-3.02-1.36-5.11-3.75-6.81-6.25-5.01-7.34-8.1-16.06-7.47-25.16.22-3.18,1.57-6.61,3.56-9.57,3.34-4.95,9.87-7.25,15.92-9.72,5.47-2.23,12.7-4.27,18.25-6.27,6.53-2.35,11.5-5.27,15.13-7.09,3.63-1.82,11.62-9.34,14.94-4.84-1.53,1.36-3.59,2.45-5.9,3.68-.94,1.4,1.57,2.55,2.5,2.83,1.88.56,3.9.7,5.32,2.02.95.88,1.57,2.01,2.09,3.16,1.29,2.84,1.71,5.89,3.06,8.69,1.73,3.59,4.86,6.4,6.06,10.25.79,2.54.64,5.51-1.11,7.77-1.51,1.95-3.95,3.1-6.28,4.18-6.42,2.95-13.23,5.59-19.39,9.01-1.08.6-2.12,1.2-3.13,1.82Z"/>
              <g>
                <path class="cls-10" d="M175.12,426.22c-.04,9.43,3.47,18.37,9.93,25.24"/>
                <path class="cls-10" d="M185.23,422.16c-1.66,7.14-1.47,16.48,2.67,28.33"/>
                <path class="cls-10" d="M177.92,426.36c2.86,4.4,8.34,14.83,16.52,21.32"/>
                <path class="cls-10" d="M197.03,417.97c-1.85,6.72-1.93,15.46,1.83,26.45"/>
                <path class="cls-10" d="M189.68,422.1c2.7,4.04,7.82,13.65,15.71,19.51"/>
                <path class="cls-10" d="M208.6,413.67c-1.99,6.4-2.29,14.65,1.16,24.94"/>
                <path class="cls-10" d="M201.23,417.74c2.57,3.75,7.4,12.71,15.07,18.06"/>
                <path class="cls-10" d="M207.63,401.46s-3.88,5.07-5.35,6.53c-2.99,2.96-7.34,4.16-11.49,5.62-4.16,1.46-8.46,2.71-12.21,4.95-2.15,1.29-4.07,2.88-6.34,3.97-2.76,1.33-5.83,1.84-8.82,2.32-4.97.8-7.08,1.26-12.05,2.06"/>
                <path class="cls-10" d="M206.17,448.14c-5.47,1.53-9.52,2.73-12.98,4.12-1.81.72-3.62,1.45-5.32,2.38-2.4,1.31-4.53,2.97-6.68,4.59-4.97,3.75-10.33,7.42-16.44,9.11"/>
              </g>
              <path class="cls-3" d="M150.04,423.08c-3.28,1.46-11.27,7.58-8.68,23.19,2.06,12.4,8.49,21.02,15.49,24.05,4.84,2.08,10.56.44,19.72-3.83v-.1c-5.15,2.26-10.16,3.47-14.8,1.38-3.02-1.36-5.11-3.74-6.82-6.25-5.01-7.33-8.09-16.05-7.46-25.15.23-3.18,1.56-6.62,3.57-9.57,3.34-4.96,9.87-7.26,15.91-9.72.67-.28,1.36-.55,2.07-.81-10.17,3.29-11.9,3.63-18.99,6.79Z"/>
            </g>
          </g>
          <path class="cls-16" d="M326.66,334.88c-14.34-16.13-41.41-14.72-84.69-3.43l-10.91,61.24s2.5,19.41,24.95,32.44c0,0,30.8-11.46,46.03-23.57,23.99-19.07,38.96-50.55,24.61-66.68Z"/>
          <path class="cls-11" d="M273.89,351.26c-11.65,1.26-19.58,11.94-25.07,18.71-6.81,8.39-11.86,14.45-16.87,21.55"/>
        </g>
        <g id="Leg-2" data-name="Leg">
          <path class="cls-19" d="M90.03,363.82c25.5-20.81,69.17-1.17,85.87,4.69,16.71,5.86,62.13,27.84,70.93,30.19,10.28,2.74,20.28,6.28,30.64,8.62,11.61,2.63,23.36,4.63,35.18,6,2.96.34,5.92.64,8.88.91,5.11.45,10.38.82,14.99,3.09,4.66,2.29,8.33,6.49,10.1,11.37,1.77,4.88,1.65,10.4-.2,15.26-1.13,2.95-2.93,5.72-5.49,7.56-4.89,3.52-11.51,3.14-17.46,2.19-15.51-2.46-30.42-7.67-45.38-12.46-9.72-3.11-19.49-5.61-29.64-6.46-10.62-.89-21.26-1.45-31.9-2.06-7.98-.46-15.96-.93-23.93-1.49-24.91-1.76-66.9-5.32-92.4-19.26-25.5-13.94-28.03-33.57-10.18-48.15Z"/>
          <path class="cls-16" d="M117.73,341.53c-10.79,2.06-52.31,18.23-49.95,39.38,2.22,19.85,17.37,29.72,33.43,36.29,15.38,6.3,39.62,12.69,59.63,14.83,15.65,1.67,36.94,2.3,36.94,2.3,0,0,6.68-8.35,11.69-23.58,5.01-15.23.27-29.55.27-29.55-23.05-13.25-92-39.66-92-39.66Z"/>
          <g>
            <path class="cls-21" d="M203.06,377.56l4.78,2.56s3.05,16.39,0,28.21c-4.28,16.59-13.02,25.89-13.02,25.89l-7.6-.32s-.72,5.75,5.07,7.01,9.05-.91,14.48,0c5.43.91,7.42,4.35,13.4,2.35,5.97-1.99,13.76-12.31,17.92-26.07,4.16-13.76,1.81-26.25-1.99-30.41-3.8-4.16-9.66-2.5-13.1-4.49-3.44-1.99-12.25-11.42-19.95-4.74Z"/>
            <path class="cls-10" d="M209.2,389.74c3.92-1.16,7.69-.36,11.11,1.88,2.16,1.41,4,3.45,6.49,4.15,2.35.66,3.71,0,6.15.08,2.8.09,5.92,1.12,7.8,3.81"/>
            <path class="cls-10" d="M221.53,419.43c4.58-7.98,7.29-25.95,1.48-37.13"/>
            <path class="cls-10" d="M238.1,417.2c4.16-13.76,1.81-26.25-1.99-30.41-3.8-4.16-9.66-2.5-13.1-4.49-3.44-1.99-12.25-11.42-19.95-4.74"/>
          </g>
          <path class="cls-6" d="M136.62,365.78c10.86-3.59,22.74-3.1,33.89-.51,11.14,2.59,32.56,12.29,32.56,12.29l4.78,2.56s3.05,16.39,0,28.21c-4.28,16.59-13.02,25.89-13.02,25.89"/>
          <path class="cls-3" d="M260.75,403.04c1.87,5.11,1.97,21.21-7.45,32.17l-6.75-.59s-.46,3.73,5.43,4.26c5.89.54,10.64.06,16.8,1.13,6.36,1.11,12.64,1.82,18.88,3.35,7.28,1.79,14.09,5.02,20.97,7.94,8.21,3.49,16.86,6.63,25.77,6.29,2.37-.09,4.8-.45,6.87-1.6,3.31-1.85,5.23-5.41,6.82-8.85,2.22-4.81,4.17-9.85,4.53-15.13.36-5.28-1.06-10.89-4.79-14.65-2.88-2.9-6.87-4.47-10.88-5.22-4.02-.75-8.13-.75-12.21-.96-11.05-.58-21.93-2.72-32.69-5.21-2.75-.64-5.54-1.57-8.33-1.98-2.05-.31-4.07-.21-6.17-.61-4.84-.92-9.75-2.04-14.26-4.04-6.16-2.73-7.99-.27-8.75,1.69l6.21,2Z"/>
          <g>
            <path class="cls-1" d="M302.24,449.65c2.82.96,5.49,2.04,8.27,3.34,3.98,1.87,8.03,3.77,12.37,4.86,6.92,1.73,13.56,2.74,18.57-.99,2.66-1.98,4.18-4.76,5.31-7.57,3.32-8.25,4.45-17.42,1.88-26.17-.9-3.06-2.95-6.12-5.54-8.58-4.33-4.12-11.2-4.96-17.64-6.07-5.82-1-13.32-1.43-19.18-2.19-6.88-.89-12.37-2.67-16.31-3.66-3.94-.99-13.48-5.75-15.75-.65l6.68,1.46c1.22,1.16-.98,2.83-1.84,3.3-1.71.95-3.66,1.52-4.76,3.12-.73,1.06-1.1,2.3-1.36,3.53-.65,3.05-.4,6.12-1.12,9.15-.92,3.88-3.37,7.3-3.71,11.32-.23,2.65.56,5.52,2.76,7.35,1.89,1.58,4.52,2.18,7.03,2.73,6.91,1.5,14.12,2.61,20.87,4.62,1.18.35,2.33.72,3.45,1.1Z"/>
            <g>
              <path class="cls-10" d="M319.47,419.16c2.07,9.2.56,18.68-4.26,26.79"/>
              <path class="cls-10" d="M308.72,417.37c3.16,6.61,4.98,15.77,3.49,28.24"/>
              <path class="cls-10" d="M316.76,419.89c-1.84,4.91-4.96,16.28-11.54,24.37"/>
              <path class="cls-10" d="M296.3,415.81c3.25,6.17,5.21,14.69,3.91,26.22"/>
              <path class="cls-10" d="M304.36,418.26c-1.76,4.53-4.7,15.01-11.15,22.43"/>
              <path class="cls-10" d="M284.07,414.1c3.32,5.82,5.39,13.82,4.24,24.6"/>
              <path class="cls-10" d="M292.15,416.49c-1.7,4.22-4.49,14.01-10.83,20.88"/>
              <path class="cls-10" d="M282.39,401.97s4.89,4.12,6.63,5.22c3.56,2.25,8.06,2.49,12.43,3.02,4.37.53,8.85.82,12.99,2.21,2.37.79,4.6,1.93,7.05,2.52,2.98.71,6.09.54,9.12.37,5.02-.29,7.19-.3,12.21-.58"/>
              <path class="cls-10" d="M293.86,447.24c5.67.32,9.89.62,13.57,1.23,1.92.32,3.85.64,5.71,1.18,2.63.76,5.06,1.93,7.51,3.05,5.66,2.59,11.68,5.02,18.02,5.36"/>
            </g>
            <path class="cls-3" d="M343.29,410.69c3.52.72,12.64,4.98,13.47,20.78.66,12.55-3.77,22.35-9.95,26.82-4.28,3.08-10.22,2.7-20.09.51l-.03-.1c5.52,1.1,10.68,1.2,14.76-1.84,2.66-1.97,4.19-4.75,5.32-7.57,3.32-8.24,4.45-17.41,1.88-26.16-.91-3.06-2.95-6.13-5.54-8.58-4.33-4.12-11.2-4.97-17.63-6.07-.71-.13-1.44-.24-2.2-.34,10.64,1.02,12.4.98,20.01,2.55Z"/>
          </g>
        </g>
      </g>
      <g id="Arm">
        <g>
          <path class="cls-19" d="M293.22,284.71c5.98-3.98,24.27-16.84,32.17-22.85,4.41-3.36,9.7-3.76,12-4.44,4.54-1.36,9.09-2.92,13.05-5.58,1.47-.99,2.87-2.15,3.73-3.7.86-1.55,1.08-3.53.21-5.07,2.46-2.01,3.15-5.88,1.53-8.6,1.1-.89,1.66-2.33,1.67-3.74,0-1.41-.48-2.79-1.18-4.01-.18-.32-.39-.65-.41-1.01-.03-.45.19-.87.41-1.25,2.01-3.52,4.18-6.99,5.47-10.84.64-1.91,1.04-4.02.4-5.93-.35-1.03-1.13-2.04-2.21-2.12-.82-.06-1.57.42-2.21.93-3.52,2.88-5.54,7.5-8.46,10.95-2.29,2.7-5.04,3.89-7.94,5.69-.39.24-.85.49-1.28.33-.45-.17-.63-.73-.53-1.2.1-.47.4-.86.68-1.24.65-.88,1.23-1.8,1.74-2.77.64-1.21,1.18-2.48,1.59-3.78.52-1.65.73-3.75-.63-4.83-1.15-.92-2.92-.56-4.08.34-1.17.9-1.92,2.21-2.8,3.39-2.13,2.84-5.1,4.97-7.2,7.82-2.71,3.68-3.89,8.32-6.7,11.92-3.67,4.72-34.64,17.72-40.28,20.71l.07.13c-12.75-9.63-26.79-20.92-35.38-27.64-10.62-8.31-14.13-11.44-26.44-13.29l7.22,45.87s27.31,19.95,35.32,25.58c8,5.62,15.17,10.47,30.51.25Z"/>
          <path class="cls-10" d="M340.51,234.95c-7.74,1.99-11.49,5.7-12.61,10.68"/>
          <path class="cls-10" d="M281.98,253.96c-3.58,3.89-6.02,9.15-7.24,13.79"/>
          <g>
            <path class="cls-19" d="M346.22,248.45c-1.3.4-2.51,1.04-3.84,1.34-2.51.57-5.71-.46-6.21-3.24-.19-1.07-.26-2.33.02-3.39.28-1.04.82-1.5.16-2.57-1.43-2.34-1.44-5.37.7-7.34-2.16-1.86-2.6-5.26-1.39-7.84,1.21-2.58,3.8-4.34,6.56-5.03,1.32-.33,2.7-.43,4.03-.16,1.58.32,2.99,1.16,4.37,1.98,1.62.96,3.26,1.95,4.53,3.35,1.26,1.4,2.11,3.3,1.81,5.16-.22,1.35-1.18,2.67-2.53,2.86,1.72,2.73.77,6.79-1.98,8.47.46,1.37.94,2.8.72,4.23-.2,1.37-1.19,2.81-2.66,2.57-1.65-.27-2.47-.95-4.3-.38Z"/>
            <path class="cls-10" d="M353.05,223.9c-2.76-1.66-5.92-3.59-9.27-3.48-3.13.1-6.13,3.02-7.74,5.49-1.74,2.67-1.43,4.94.85,7.26"/>
            <path class="cls-10" d="M352.19,231.25c-1.82-1.2-3.76-2.43-5.94-2.56-2.54-.14-4.9,1.26-6.96,2.76-1.17.85-2.31,1.78-3.1,2.99-1.4,2.16-.96,4.65.53,6.63"/>
            <path class="cls-10" d="M347.72,239.52c-1.75-.35-3.55-.56-5.32-.36-1.77.21-3.53.85-4.86,2.04-1.26,1.13-1.36,3.82-1.04,5.37.7,3.43,3.93,4.23,6.54,2.5"/>
          </g>
        </g>
        <g>
          <path class="cls-1" d="M218.06,210.44c12.66,1.73,18.81,4.62,25.7,10.34,6.88,5.73,39.88,32.48,39.88,32.48,0,0-4.53,21.25-20.1,32.9l-38.36-26.2-7.12-49.52Z"/>
          <g>
            <path class="cls-1" d="M276.74,247.68l1.76,1.43s2.28,7.53-4.13,18.6c-6.41,11.07-14.65,15.85-14.65,15.85l-3.73-2.55s-1.17,2.86.88,5.09c2.05,2.23,5.23,2.24,8.25,4.21,2.85,1.86,4.29,4.23,8.63,3.46,4.34-.76,13.32-9.19,15.22-22.27,1.9-13.08-1.65-18.86-3.03-20.68-1.38-1.82-2.2-1.66-3.54-2.08-1.4-.44-3.78-3-5.65-1.05Z"/>
            <path class="cls-10" d="M278.5,249.11s2.28,7.53-4.13,18.6c-6.41,11.07-14.65,15.85-14.65,15.85"/>
            <path class="cls-10" d="M283.6,261.42c-1.03,10.43-6.77,19.88-13.82,27.65"/>
          </g>
        </g>
      </g>
      <g id="Head">
        <path class="cls-21" d="M142.45,135.85c-7.49,10.27-1.21,31.21-.7,34.35.73,4.5.13,10.77-1.95,14.86-2.52,4.96-5.03,9.86-5.97,15.41-1.04,6.13,1.61,14.77,4.11,17.57,9.59,10.75,23.53,12.68,41.95,11.12,18.42-1.55,28.03-2.82,38.18-16.98,5.07-7.08,6.93-17.06,6.93-25.77,0-21.03-7.21-31.69-7.21-31.69,0,0,6.16-6.88,3.61-16.31-2.55-9.43-8.1-15.17-18.88-20.23-10.78-5.06-21.18-4.14-26.92-3.5-9.5,1.06-19.41,5.32-21.39,13.38-5.78,1.37-8.54,3.38-11.76,7.78Z"/>
        <ellipse class="cls-21" cx="179.47" cy="154.72" rx="35.9" ry="34.29" transform="translate(-8.64 10.62) rotate(-3.31)"/>
        <path class="cls-19" d="M162.93,131.73c1.74,23.6-10.1,29.42-10.1,29.42,1.76,2.96,3.14,6.13,4.12,9.41-2.8-3.29-6.88-5.82-11.33-5.92-4.45-.1-9.09,2.73-9.99,6.9-.9,4.12,2.08,8.39,6.1,10.08,4.02,1.69,9.4,1.52,14.1-1.23h0c2.04,3.94,6.12,7.77,11.78,10.14l-.8,16.49-12.45,3.94s5.79,22.59,45.26,22.68c29.46.07,5.89-25.18,5.89-25.18l-11.02-2.57-2.12-12.62c7.39-1.17,28.6-9.14,23.36-37.2-1.05-5.63-3.23-10.74-6.11-15.08h0c-12.16-17.54-33.2-16.32-46.7-9.25Z"/>
        <path class="cls-20" d="M174.48,149.34c-3.44-.31-7.73,1.02-9.19,4.15-1.79,3.81.98,5.43,1.96,5.29.37-1.94,1.57-3.02,2.63-3.9,1.38-1.14,3.28-2.06,5.72-1.94,2.93.16,5.77,3.06,5.77,3.06.25-3.17-3.45-6.36-6.89-6.67Z"/>
        <path class="cls-20" d="M198.64,147.18c3.14-1.45,7.62-1.63,10.05.82,2.96,2.99.9,5.44-.07,5.65-1-1.7-2.49-2.31-3.79-2.78-1.69-.61-3.78-.85-6.04.1-2.7,1.13-4.41,4.82-4.41,4.82-1.3-2.9,1.11-7.15,4.25-8.6Z"/>
        <g>
          <path class="cls-10" d="M179.54,171.99c4.58,2.71,10.54,2.9,15.28.49"/>
          <g>
            <path class="cls-10" d="M141.75,171.21c1-.75,3.48-1.37,6.03-.77,2.55.6,4.71,2.51,5.52,4.89"/>
            <path class="cls-10" d="M146.15,173.82c.73-.54,3.34-1.95,5.96-.64"/>
          </g>
          <g>
            <path class="cls-16" d="M176.72,192.98s7.58,2.19,15.65.55l.7,4.14s-9.37,1.09-16.35-4.69Z"/>
            <path class="cls-10" d="M187.62,148.7c.7,4.61,3.39,8.37,4.76,10.04,2.56,3.1.19,5.44-3.56,7.53"/>
            <g>
              <g>
                <path class="cls-14" d="M194.23,155.96c.37-2.79,3.35-4.8,6.17-5.54,2.82-.74,7.05.89,7.87,3.29-.34,4.22-9.19,7.06-14.04,2.25Z"/>
                <path class="cls-16" d="M206.44,153.24c.61,2.08-.66,4.29-2.83,4.94-2.17.65-4.42-.5-5.03-2.58-.61-2.08.66-4.29,2.83-4.94s4.42.5,5.03,2.58Z"/>
                <polygon class="cls-14" points="198.3 155.71 202.51 154.42 199.37 157.7 198.3 155.71"/>
                <path class="cls-10" d="M208.27,153.71c-3.76-5.8-12.43-3.23-14.04,2.25"/>
                <path class="cls-10" d="M210.37,150.74c-.22.91-1.04,1.65-1.98,1.78"/>
              </g>
              <path class="cls-10" d="M195.17,141.65c4.11-1.04,8.68-.89,11.95,1.28"/>
            </g>
            <g>
              <g>
                <path class="cls-14" d="M167.24,158.78c.37-2.79,2.97-4.73,5.79-5.47,2.82-.74,6.78-.65,8.25,3.22-.34,4.22-9.19,7.06-14.04,2.25Z"/>
                <path class="cls-16" d="M179.61,156.41c.42,2.12-1.03,4.21-3.25,4.67-2.22.46-4.36-.89-4.78-3.01-.42-2.12,1.03-4.21,3.25-4.67,2.22-.46,4.36.89,4.78,3.01Z"/>
                <polygon class="cls-14" points="171.29 158.16 175.6 157.24 172.18 160.23 171.29 158.16"/>
                <path class="cls-10" d="M181.29,156.53c-2.92-5.69-12.76-3.69-14.04,2.25"/>
              </g>
              <path class="cls-10" d="M164.58,156.26c.7.89,1.92,1.34,3.03,1.1"/>
              <path class="cls-10" d="M176.99,143.53c-5.14-.19-8.71,1.04-12.45,3.74"/>
            </g>
          </g>
        </g>
        <path class="cls-10" d="M158.13,185.66c0,3.33-2.7,6.03-6.03,6.03s-6.03-2.7-6.03-6.03,2.7-6.03,6.03-6.03"/>
      </g>
      <g id="Chest">
        <g>
          <path id="Chest-2" data-name="Chest" class="cls-3" d="M136.03,298.69s-.16-10.94-3.13-27.35c0,0-13.5-28.57-1.62-52.45,10.31-2.38,25.65-7.39,25.65-7.39,15.68,19.94,50.66,13.54,45.34-2.18l16.63,3.02c14.31,21.65,18.73,38.92,13.86,64.36-2.22,14.42-5.03,28.69-5.03,28.69l.69,16.1s10.06,3.46,10.5,10.14c-8.64,8.36-27.08,15.39-62.21,15.51-32.88.11-55.93-6.56-55.93-6.56-.33-5.65,4.02-12.38,9.87-15.84l5.38-26.05Z"/>
          <path class="cls-10" d="M130.65,324.74c12.6,9.14,27.14,8.63,43.26,11.01"/>
          <path class="cls-10" d="M228.42,321.48c-9.89,4.41-21.84,7.16-32.64,6.37"/>
        </g>
        <g>
          <path class="cls-1" d="M158.13,208.62s12.75,17.53,12.76,54.21c0,29.39-2.05,85.65-2.05,85.65-19.23,1.33-35.95-1.08-45.92-7.91,0,0,4.61-13.99,9.23-28.36,5.03-15.66-5.54-51.01-5.54-51.01l3.49-43.99,28.04-8.59Z"/>
          <path class="cls-1" d="M199.4,206.96c10.53,14.86,20.66,44.62,21.25,59.28.58,14.66,4.02,74.12,4.02,74.12,0,0,17.78,4.04,25.9-11.06-1.34-2.98-2.74-6.42-8.04-7.81-1.6-4.6-2.44-11.47-3.02-17.72-.75-8.09-1.41-20.29-.58-29.34,1.04-11.3,3.82-24.08-3.6-41.91-2.53-6.09-6.25-13.61-11.64-21.01l-24.28-4.54Z"/>
          <path class="cls-10" d="M239.5,303.77c-.74-8.09-1.41-20.29-.58-29.34,1.04-11.3,3.82-24.08-3.6-41.91"/>
        </g>
      </g>
      <g id="Arm-2" data-name="Arm">
        <g id="Arm-3" data-name="Arm">
          <path class="cls-19" d="M199.83,335.65c-.63-1.52-2.23-2.56-3.66-3.21-2.94-1.33-6.1-2.09-9.27-2.62-1.6-.27-3.21-.46-4.81-.69-1.08-.16-2.41-.7-1.38-1.89,1.93-2.25,4.63-3.78,7.25-5.17,2.05-1.09,4.33-2.12,5.57-4.15,1.42-2.33-.18-4.05-2.34-3.79-7.24.89-14.4,5.33-20.67,9.05-6.82,4.04-14.45,8.55-22.59,5.67-13.48-4.77-26.53-21.52-26.52-21.54.97-3.51,2.63-7.18,4.75-10.82h0c3.61-6.21,6.11-12.82,9.31-19.5,5.58-11.65,7.27-17.78,6.29-27.37-1.43-13.9-3.64-21.5-11.84-30.12-16.79,3.41-28.11,32.99-37.6,59.93h0c-2.25,6.4-5.61,12.35-7.36,18.43-3.9,13.6-5.24,21.45,7.28,31.72,9.63,7.9,32.51,19.67,46.55,24.2,4.72,1.52,9.76,2.31,14.73,1.9,6.31-.52,11.7-4.51,18-4.93,2.42-.16,4.33-.41,6.76-.37,4.72.06,7.74.87,10.07-.88.99-.75,2.22-2.62.35-4.76,1.93.68,4.03.78,5.69-.56,1.2-.97,2.43-2.87-.03-4.82,1.13.41,2.4.54,3.54.15,1.72-.59,2.64-2.14,1.94-3.84Z"/>
          <path class="cls-10" d="M176.89,335.86c6.75-.57,11.59.12,17.47,3.48"/>
          <path class="cls-10" d="M174.8,342.83c6.51-.83,10.29-.32,13.89,1.9"/>
          <path class="cls-10" d="M110.85,304.61c3.62-.7,8.05.59,10.56,2.69"/>
        </g>
        <g>
          <path class="cls-1" d="M130.09,217.22c-10.79,2.88-19.49,8.31-27.94,33.47-5.97,17.78-13.79,34.99-18,50.05,0,0,8.38,5.06,18.39,6.69,10.01,1.63,20.07-.24,20.07-.24l5.03-9.47c2.77-6.61,4.82-11.15,9.57-20.61,4.75-9.46,14.64-35.22-7.12-59.89Z"/>
          <path class="cls-10" d="M142.92,246.25c1.31,12.79-4.44,28.17-10.78,41.84"/>
          <g>
            <path class="cls-1" d="M90.1,283.16l-1.3,4.01s2.32,6.28,15.73,10.49c13.41,4.21,21.44,3.13,21.44,3.13l1.68-3.06s1.82,1.32,1.34,3.01c-.27.96-1.17,2.1-1.54,4.05-.22,1.18-.36,3.56-.59,4.23-.68,2-1.8,4.59-12.34,5.88-10.54,1.29-26.18-2.32-30.87-6.32-4.68-4-3.13-8.1-1.31-12.73,1.82-4.62-.23-14.39,7.76-12.68Z"/>
            <path class="cls-10" d="M88.8,287.17s2.32,6.28,15.73,10.49c13.41,4.21,21.44,3.13,21.44,3.13"/>
            <path class="cls-10" d="M83.05,295.83c6.44,6.16,14.14,9.66,23.06,9.68"/>
          </g>
        </g>
      </g>
    </g>
    <g id="Image">
      <g>
        <rect class="cls-4" x="275.27" y="116.58" width="109.12" height="89.56"/>
        <g>
          <rect class="cls-5" x="326.51" y="112.55" width="8.43" height="8.05"/>
          <rect class="cls-5" x="380.17" y="112.55" width="8.43" height="8.05"/>
          <rect class="cls-5" x="271.06" y="112.55" width="8.43" height="8.05"/>
          <path class="cls-5" d="M275.46,165.38h-.38c-2.22,0-4.02-1.8-4.02-4.02h0c0-2.22,1.8-4.03,4.02-4.03h.38c2.22,0,4.03,1.8,4.03,4.03h0c0,2.22-1.8,4.02-4.03,4.02Z"/>
          <path class="cls-5" d="M384.57,165.38h-.38c-2.22,0-4.02-1.8-4.02-4.02h0c0-2.22,1.8-4.03,4.02-4.03h.38c2.22,0,4.03,1.8,4.03,4.03h0c0,2.22-1.8,4.02-4.03,4.02Z"/>
        </g>
        <g>
          <rect class="cls-5" x="326.51" y="202.11" width="8.43" height="8.05"/>
          <rect class="cls-5" x="380.17" y="202.11" width="8.43" height="8.05"/>
          <rect class="cls-5" x="271.06" y="202.11" width="8.43" height="8.05"/>
        </g>
      </g>
      <g>
        <path class="cls-21" d="M293.92,127.29h90.01c5.27,0,9.55,4.28,9.55,9.55v70.45c0,5.27-4.28,9.55-9.55,9.55h-90.01c-5.27,0-9.55-4.28-9.55-9.55v-70.46c0-5.27,4.28-9.55,9.55-9.55Z"/>
        <rect class="cls-8" x="294.89" y="138.18" width="88.08" height="67.79" rx="4.38" ry="4.38"/>
        <g>
          <path class="cls-8" d="M294.94,183.01l23.93-19.32c3.13-2.53,7.61-2.48,10.68.12l22.69,19.2"/>
          <path class="cls-8" d="M382.96,176.76l-15.05-8.78c-2.64-1.54-5.92-1.52-8.54.06l-14.52,8.72"/>
          <path class="cls-8" d="M351.48,157.42c0,2.68-2.17,4.85-4.85,4.85s-4.85-2.17-4.85-4.85,2.17-4.85,4.85-4.85,4.85,2.17,4.85,4.85Z"/>
        </g>
      </g>
    </g>
    <g id="Device">
      <g>
        <g>
          <path class="cls-21" d="M208.57,388.04c-1.62,0-3.04-.26-4.21-.77l-49.25-21.66c-.26-.11-.43-.37-.45-.65l-.21-4.29c0-.2.06-.39.19-.54.13-.15.32-.23.52-.24,0,0,104.46-4.98,104.48-4.98.1,0,.21.02.3.06l53.54,23.55c.26.11.43.37.45.65l.15,3.12c.02.41-.3.76-.71.78l-104.04,4.96c-.26.01-.51.02-.76.02Z"/>
          <path class="cls-16" d="M259.65,355.64l53.54,23.55.15,3.12-104.04,4.96c-.24.01-.48.02-.72.02-1.51,0-2.84-.24-3.91-.71l-49.25-21.66-.2-4.29,104.44-4.98M259.65,354.14s-.05,0-.07,0l-104.44,4.98c-.83.04-1.47.74-1.43,1.57l.2,4.29c.03.57.37,1.07.89,1.3l49.25,21.66c1.26.56,2.78.84,4.51.84.26,0,.52,0,.79-.02l104.04-4.96c.83-.04,1.47-.74,1.43-1.57l-.15-3.12c-.03-.57-.37-1.07-.89-1.3l-53.54-23.55c-.19-.08-.4-.13-.6-.13h0Z"/>
        </g>
        <path class="cls-18" d="M155.21,360.62l104.44-4.98,53.54,23.55-101.69,4.85c-1.82.09-3.39-.15-4.63-.69l-51.66-22.72Z"/>
        <polygon class="cls-16" points="192.59 370.14 268.64 366.51 291.72 376.66 215.67 380.29 192.59 370.14"/>
      </g>
      <path class="cls-1" d="M208.77,388.24l107.68-5.14c2.63-.13,4.99-2.35,5.27-4.98l7.64-72.43c.28-2.62-1.63-4.65-4.27-4.52l-107.68,5.14c-2.63.13-4.99,2.35-5.27,4.98l-7.64,72.43c-.28,2.62,1.63,4.65,4.27,4.52Z"/>
      <g id="Stickers">
        <path class="cls-14" d="M281.67,347.13c.08,4.45-4.91,8.15-11.16,8.26-6.24.12-11.37-3.39-11.46-7.84s4.91-8.15,11.16-8.26c6.24-.12,11.37,3.39,11.46,7.84Z"/>
        <g>
          <path class="cls-13" d="M272.38,357.72c-.85,6.82,3.95,12.09,10.72,11.77,6.77-.32,12.94-6.11,13.79-12.94.85-6.82-3.95-12.09-10.72-11.77-6.77.32-12.94,6.11-13.79,12.94Z"/>
          <path class="cls-20" d="M274.72,357.61c-.69,5.52,3.2,9.78,8.67,9.52,5.48-.26,10.47-4.95,11.16-10.47.69-5.52-3.2-9.78-8.67-9.52-5.48.26-10.47,4.95-11.16,10.47Z"/>
          <path class="cls-16" d="M280.94,363.87c-.48-2.23-1.14-4.38-1.79-6.57-.07-.25-.14-.5-.17-.76-.02-.18-.07-.82.13-.92-.1.04.7,1.14.8,1.29.44.68.86,1.49,1.82,1.24.23-.06.35-.26.37-.48.1-1.18.2-2.35.24-3.53.04-1.07-.12-2.28.13-3.33.05-.21.16-.66.44-.69s.41.28.5.47c.25.55.28,1.22.3,1.81.02,1.09-.07,2.17.09,3.26.08.54.81.4.96,0,.32-.84.6-1.69.81-2.56.19-.78.27-1.64.61-2.38.05-.1.13-.35.24-.37.06,0,.23.54.24.59.13.41.21.84.24,1.27.06.98-.08,1.96-.24,2.92-.1.62.82.91.96.27.07-.31.32-1.13.73-.72.21.21.07.97.05,1.22-.05.55.67.61.93.25.34-.47,1.28-.49,1.23.24s-.43,1.45-.72,2.07c-.6,1.26-1.35,2.46-2.12,3.62-.36.54.51,1.04.86.5.64-.97,1.27-1.97,1.81-3,.47-.91,1.01-1.95,1.14-2.98.25-1.89-2.08-2.32-3.07-.96l.93.25c.07-.8.09-2.09-.91-2.34s-1.64.72-1.84,1.57l.96.27c.19-1.24.39-2.5.21-3.76-.1-.74-.42-2.49-1.49-2.37-.98.11-1.3,1.53-1.47,2.31-.29,1.3-.6,2.57-1.08,3.82h.96c-.22-1.51.13-3.05-.23-4.55-.25-1.04-1.12-2.29-2.3-1.5-1.03.69-.84,2.3-.85,3.36-.01,1.65-.13,3.31-.28,4.95l.37-.48c-.34.09-.94-1.16-1.11-1.4-.28-.38-.57-.88-1.02-1.07-1.1-.47-1.42,1.15-1.35,1.89.12,1.19.67,2.37.99,3.51.38,1.33.71,2.66,1,4.01.14.63,1.1.36.96-.27h0Z"/>
          <path class="cls-16" d="M288.66,359.42s-.07,0,0,0c.07,0-.05-.03-.01,0-.06-.04-.11-.07-.14-.15-.08-.22,0-.52.06-.74.12-.51-.46-.8-.84-.49-.16.13-.29.29-.42.45-.09.11-.2.26-.33.32-.04.02-.13.02-.1.02-.02,0-.06-.03-.09-.06-.1-.11-.12-.26-.1-.42.04-.44.24-.89.37-1.31.15-.48.3-.96.45-1.44.19-.62-.77-.88-.96-.27s-.38,1.2-.57,1.81-.43,1.22-.2,1.83c.21.57.76.98,1.38.83s.85-.69,1.29-1.05l-.84-.49c-.13.57-.22,1.21.18,1.71.33.41.92.58,1.39.31.56-.32.05-1.19-.5-.86h0Z"/>
          <path class="cls-16" d="M288.74,355.49c-.17.47-.35.95-.54,1.41-.04.11-.09.22-.14.33-.01.03-.03.07-.04.1-.02.06-.03.07-.01.03-.02.05-.04.1-.06.15-.1.24-.2.47-.31.71s-.08.55.18.68c.22.12.57.08.68-.18.44-.98.84-1.97,1.21-2.98.09-.25-.1-.56-.35-.62-.28-.06-.52.09-.62.35h0Z"/>
        </g>
        <g>
          <path class="cls-14" d="M215.7,360.85l-.39.42c-.66.71-.81,1.76-.37,2.62l.1.2c.42.83.3,1.84-.31,2.54l-.19.22c-.61.71-.73,1.71-.31,2.55l.13.27c.42.83.3,1.83-.3,2.54l-.19.23c-.6.71-.72,1.71-.3,2.54l.14.27c.42.83.3,1.83-.3,2.54l-.18.22c-.61.72-.73,1.74-.29,2.57h0c.25.48.67.86,1.17,1.07l2.05.84c.61.25,1.29.23,1.88-.06l2.36-1.14c.58-.28,1.25-.31,1.85-.07l2.45.97c.6.24,1.27.21,1.85-.07l2.37-1.15c.58-.28,1.25-.31,1.85-.07l2.45.97c.6.24,1.27.21,1.85-.07l2.38-1.15c.58-.28,1.25-.31,1.85-.07l2.44.96c.61.24,1.3.21,1.89-.09l2.43-1.23c.25-.13.47-.3.66-.5l.34-.37c.66-.72.8-1.78.34-2.64l-.08-.15c-.44-.83-.33-1.85.27-2.57l.16-.19c.6-.72.71-1.73.27-2.57l-.12-.22c-.44-.83-.33-1.84.27-2.56l.16-.19c.6-.72.71-1.73.27-2.56l-.12-.22c-.44-.83-.33-1.84.27-2.56l.14-.17c.61-.73.71-1.76.25-2.6h0c-.25-.46-.65-.82-1.13-1.02l-2.04-.86c-.61-.26-1.3-.24-1.9.05l-2.31,1.11c-.59.28-1.27.3-1.87.06l-2.39-.97c-.6-.24-1.28-.22-1.87.06l-2.32,1.12c-.59.28-1.27.3-1.87.06l-2.39-.97c-.6-.24-1.28-.22-1.87.06l-2.34,1.13c-.58.28-1.25.3-1.85.07l-2.48-.97c-.62-.24-1.31-.21-1.9.1l-2.32,1.19c-.24.12-.45.28-.63.48Z"/>
          <path class="cls-17" d="M217.3,364l-1.64,14.03c-.15,1.28.77,2.27,2.06,2.22l24.11-1.08c1.29-.06,2.45-1.14,2.59-2.43l1.53-14.02c.14-1.28-.79-2.28-2.08-2.22l-23.96,1.07c-1.29.06-2.46,1.14-2.61,2.43Z"/>
          <path class="cls-14" d="M218.24,376.19l-.26,2.46,3.17-.15.27-2.59c-.86.05-1.73.14-2.59.22-.19.02-.39.04-.59.07ZM219.59,363.43l-.33,3.12c1.05-.19,2.11-.38,3.17-.49,0,0,0,0,0,0l.29-2.77-3.14.15ZM219.16,367.51l-.12,1.11c.45-.02.89-.03,1.34-.03.52,0,1.03.03,1.55-.01.08,0,.17-.02.25-.03l.16-1.55s-.04,0-.05,0c-1.05.12-2.09.31-3.13.5ZM220.73,369.53c-.59,0-1.19-.01-1.78.02,0,0,0,0,0,0l-.18,1.66c1.06-.13,2.12-.32,3.18-.45l.13-1.26c-.45.04-.9.03-1.35.03ZM218.34,375.24c.21-.02.42-.05.64-.07.85-.08,1.69-.16,2.54-.21l.34-3.24c-1.06.14-2.12.33-3.18.45l-.33,3.07Z"/>
          <path class="cls-16" d="M233.07,367.58c-.06.06-.16.08-.25.1-.54.13-.96.6-1.14,1.13-.19.53-.19,1.1-.16,1.66.01.18.02.39-.1.53-.09.11-.23.16-.36.21-2.27.87-3.78,2.98-5.16,4.98-.1.14-.2.29-.18.46.02.24.26.41.5.42.24.02.46-.08.68-.19,1.06-.51,2.05-1.16,2.94-1.93.32-.28.71-.6,1.13-.49.18.05.34.18.47.32.68.72,1.08,1.75,1.97,2.18.24.11.54.17.75.01.13-.1.2-.25.25-.4.35-1.03.13-2.16.17-3.24,0-.12.01-.25.07-.36.11-.21.36-.29.58-.37,2.17-.76,3.94-2.58,4.63-4.78.03-.11.06-.23,0-.32-.06-.11-.21-.13-.34-.13-1.07.04-1.68,1.26-2.65,1.69-.14.06-.33.09-.42-.03-.06-.08-.04-.19-.02-.28.35-1.5,1.97-3.19.38-4.5-.89-.73-2.57-1.01-3.41-.06-.32.37-.42.84-.42,1.31,0,.45.47,1.72.1,2.07Z"/>
        </g>
        <g>
          <path class="cls-14" d="M289.21,379.04l25.99-1.5c.73-.04,1.33-.58,1.44-1.31.52-3.31,1.93-12.6,2.46-19.84.42-5.72-3.87-3.67-6.79,2.52-4.83-2.65-10.43-2.15-15.31.28.08-10.58-4.24-7.22-6.36,1.21-1.22,4.86-2.51,13.15-3.06,16.86-.14.97.64,1.83,1.63,1.77Z"/>
          <path class="cls-16" d="M289.5,377.15c.54-3.62,1.79-11.62,2.97-16.28.76-3.01,1.69-4.89,2.34-5.81.17.72.35,1.98.34,4.14l-.02,3.05,2.73-1.36c2.35-1.17,4.84-1.82,7.18-1.86,2.3-.04,4.45.48,6.4,1.54l1.74.96.85-1.8c1.23-2.61,2.51-3.99,3.24-4.54.02.25.03.61,0,1.09-.51,6.93-1.82,15.71-2.4,19.43l-25.35,1.46Z"/>
          <path class="cls-14" d="M296.8,370c.14.34.43.63.8.69.4.07.8-.16,1.05-.48.64-.84,1.17-3.16-.31-3.44-1.49-.29-1.94,2.24-1.53,3.23Z"/>
          <path class="cls-14" d="M307.87,369.79c.14.34.43.63.8.69.4.07.8-.16,1.05-.48.64-.84,1.17-3.16-.31-3.44-1.49-.29-1.94,2.24-1.53,3.23Z"/>
          <path class="cls-14" d="M305.03,370.84c.61.58-.93,1.66-1.37,1.95-.08.05-.17.11-.27.1-.08,0-.16-.06-.23-.1-.45-.32-1.03-.76-1.21-1.32-.06-.2.03-.43.18-.59.57-.57,2.32-.6,2.9-.05Z"/>
        </g>
        <g>
          <path class="cls-16" d="M223.98,325.34c1.35.39,2.64-.7,3.62-1.71.91-.95,1.82-1.91,2.65-2.93,2.14-2.62,3.98-5.72,7.04-7.16,3.03-1.42,7.02-.08,8.83,2.66,1.11,1.68,1.55,3.74,1.59,5.75.06,2.86-.64,5.67-1.35,8.44-.46,1.81-.94,3.61-1.42,5.41-7.08-2.76-13.94-5.81-20.46-9.76"/>
          <path class="cls-14" d="M216.29,330.71l27.95,12.22c.52.23,1.12,0,1.36-.52l2.54-5.49c.24-.53,0-1.15-.52-1.39l-27.85-12.43c-.52-.23-1.13,0-1.37.51l-2.65,5.71c-.25.53,0,1.16.53,1.39Z"/>
          <path class="cls-20" d="M233.53,325.07c1.47,3.75,7.51,4.78,9.68,1.2,1.46-2.41,1.84-6.66-.08-8.94-1.7-2.01-4.63-2.19-6.53-.41-2.08,1.95-4.23,5.19-3.07,8.15Z"/>
          <path class="cls-16" d="M235.67,317.62l9.63,4.36-.35,1.17-1.87-1.13s-.88,1.84-2.21,1.2c-1.33-.64-1.14-2.33-2.07-2.8-.93-.47-1.52,1.39-2.81.75-1.3-.64-.31-3.55-.31-3.55Z"/>
          <path class="cls-16" d="M236.05,324.18c-.13-.03-.28-.05-.38.03-.09.08-.11.21-.09.33.07.49.54.8.99,1.01.9.41,1.96.64,2.88.26.23-.09.45-.23.57-.44s.12-.51-.05-.68c-.44-.43-1.15.21-1.65.23-.79.03-1.53-.54-2.27-.73Z"/>
          <path class="cls-16" d="M219.93,328.52c.4-.54,1.18-1.17,1.86-.69.62.43.06,1.09-.25,1.52-.46.63-1.3,2.31.14,2.41.23.02.47-.04.68-.14.22-.11.49-.47.74-.47s.61.32.86.4c.24.08.5.11.74.11,1.14,0,2.15-.72,2.52-1.79.12-.34-.19-.6-.48-.63-.93-.11-1.69.7-1.79,1.58-.11,1.06.75,1.88,1.7,2.17.55.16,1.09.03,1.63.14.61.11.72.77,1.09,1.18.3.34.71.53,1.14.65.5.14,1.07.16,1.43.57.43.48,1.14-.23.71-.71-.5-.56-1.19-.63-1.87-.83-.87-.25-.91-1.11-1.6-1.58-.75-.52-1.66-.12-2.45-.46-.4-.17-.82-.52-.79-1,.03-.44.36-.77.8-.71l-.48-.63c-.2.57-.73.95-1.32,1.03-.69.1-1.1-.42-1.74-.48-.24-.02-.47.02-.69.14-.1.06-.66.48-.67.46-.12-.18.76-1.17.87-1.35.58-.93.4-2.06-.65-2.55-1.19-.56-2.32.23-3.01,1.17-.38.52.49,1.02.86.5h0Z"/>
          <path class="cls-16" d="M236.18,333.6c.03.18-.03.04.06.04.03,0,.19-.08.22-.09.16-.05.41-.13.57-.06.26.1.27.52.2.74-.13.45-.53.79-.82,1.14-.31.37-.6.78-.72,1.25-.49,2.05,2.21,2.75,3.67,2.09.84-.38,1.4-1.24,1.71-2.08.29-.78.15-1.86-.86-1.96s-1.55.88-1.65,1.74c-.11.92.14,1.91.75,2.61.66.76,1.72.95,2.68.79s1.54-1.15,1.6-2.03c.04-.64-.96-.64-1,0-.02.28-.18.57-.35.78-.23.27-.48.29-.81.3-.67.01-1.24-.21-1.58-.82s-.47-1.51-.11-2.12c.08-.14.35-.42.49-.19.12.2-.1.61-.18.79-.34.7-.79,1.3-1.61,1.43-.54.08-1.3-.01-1.65-.49-.47-.62.32-1.36.69-1.8.48-.56.89-1.2.76-1.97-.13-.83-.8-1.31-1.62-1.19-.75.1-1.53.5-1.41,1.36.04.27.38.41.62.35.29-.08.39-.35.35-.62h0Z"/>
          <path class="cls-16" d="M244.26,336.9c.64,0,.64-1,0-1s-.64,1,0,1h0Z"/>
        </g>
        <g>
          <path class="cls-14" d="M279.88,321.9c-.61,4.88,2.82,8.65,7.66,8.41,4.84-.23,9.25-4.37,9.86-9.25.61-4.88-2.82-8.65-7.66-8.41-4.84.23-9.25,4.37-9.86,9.25Z"/>
          <path class="cls-16" d="M289.63,318.04l-.45,3.5c-.07.58.53,1.02,1.06.76l2.97-1.47c.23-.11.38-.33.41-.58l.41-3.6c.07-.59-.56-1.01-1.08-.73l-2.94,1.57c-.21.11-.35.32-.38.56Z"/>
          <path class="cls-16" d="M288.74,324.8l-.4,2.38c-.11.68.68,1.13,1.2.69l3.16-2.65c.15-.12.24-.29.26-.48l.16-1.39c.07-.6-.57-1.02-1.1-.73l-2.92,1.65c-.19.11-.33.3-.36.52Z"/>
          <path class="cls-16" d="M288.28,318.26l-.46,3.7c-.06.51-.61.8-1.07.57l-2.84-1.46c-.28-.14-.44-.45-.39-.76l.52-3.79c.07-.52.64-.8,1.09-.54l2.78,1.56c.26.15.41.44.37.73Z"/>
          <path class="cls-16" d="M287.38,324.74l-.34,2.79c-.08.68-.96.89-1.34.32l-2.52-3.73c-.1-.15-.14-.33-.12-.51l.08-.61c.07-.52.64-.8,1.09-.54l2.78,1.56c.26.15.41.44.37.73Z"/>
        </g>
        <g>
          <path class="cls-14" d="M323.48,314.86c.06,3.49-6.94,6.45-15.64,6.62-8.7.16-15.81-2.54-15.88-6.03-.07-3.49,6.94-6.45,15.64-6.62,8.7-.16,15.81,2.54,15.88,6.03Z"/>
          <path class="cls-17" d="M320.72,314.91c.05,2.46-5.74,4.56-12.92,4.69-7.18.13-13.04-1.75-13.08-4.21-.05-2.46,5.74-4.56,12.92-4.69,7.18-.13,13.04,1.75,13.08,4.21Z"/>
          <path class="cls-14" d="M299.07,315.55c-.64.06.23-1,.39-1.15.32-.3.75-.57,1.19-.64.72-.11.39.49.27.95-.15.55-.3,1.1-.45,1.65s.67.91.91.39c.15-.33.31-.65.51-.94.09-.13.18-.26.29-.38.05-.23.08-.24.07-.04.03.15,0,.29-.06.43l.96.27c.1-.39.28-.77.6-1.02.01,0,.31-.13.18-.16-.06-.01-.04.02,0,.09.1.15.14.28.29.41.44.38,1.13.39,1.68.39.78.01,1.57-.08,2.31-.34.65-.23,1.63-.61,1.99-1.24s-.13-1.29-.78-1.37c-.68-.09-1.41.32-1.86.81-.8.88-1.24,2.9.22,3.39.66.22,1.41.06,2.07-.09,1.01-.22,1.95-.58,2.83-1.12l-.75-.43c-.1,1.02.91,1.44,1.77,1.49.97.06,1.87-.29,2.62-.89.5-.4-.21-1.11-.71-.71-.37.3-.82.5-1.29.58-.37.06-1.44.13-1.38-.47.04-.38-.45-.62-.75-.43-.75.46-1.54.78-2.4.98-.47.11-1.2.36-1.66.15-.73-.34-.08-1.57.33-1.91.12-.1.83-.33.85-.43-.05.24-.96.59-1.17.67-.69.28-1.42.38-2.17.38-.27,0-.56.01-.82-.06-.33-.09-.27-.21-.45-.46-.91-1.24-2.32.72-2.52,1.55-.15.62.79.89.96.27.19-.68.12-1.84-.85-1.78s-1.47,1.22-1.81,1.94l.91.39c.17-.63.35-1.26.52-1.88.12-.44.26-.9.06-1.34-.39-.88-1.48-.72-2.2-.41-.78.34-1.61,1.04-1.89,1.87s.22,1.78,1.15,1.69c.63-.06.64-1.06,0-1h0Z"/>
          <path class="cls-14" d="M318.43,315.65c.64,0,.64-1,0-1s-.64,1,0,1h0Z"/>
        </g>
      </g>
    </g>
    <path id="Thumb" class="cls-19" d="M343,209.63c-1.15-.92-2.92-.56-4.08.34-1.17.9-1.92,2.21-2.8,3.39-2.13,2.84-5.1,4.97-7.2,7.82l13.12-2.94c.64-1.21,1.18-2.48,1.59-3.78.52-1.65.73-3.75-.63-4.83Z"/>
  </g>
  <g id="Speech_Bubble-2" data-name="Speech_Bubble">
    <path id="Speech_Bubble-3" data-name="Speech_Bubble" class="cls-9" d="M124.89,153.01c-3.29-2.25-6.04-5.2-7.85-8.29,9.14-6.14,15.02-15.7,15.02-26.44,0-18.54-17.5-33.56-39.09-33.56s-39.09,15.03-39.09,33.56,17.5,33.56,39.09,33.56c3.75,0,7.38-.46,10.82-1.31,5.28,4.25,12.48,6.37,20.09,5.9,1.78-.11,2.49-2.41,1.01-3.42Z"/>
    <g id="Icon">
      <g>
        <path class="cls-15" d="M80.13,127.11l-15.03-6.01v-5.04l15.03-6.01c1.95-.78,4.07.66,4.07,2.76h0c0,1.23-.76,2.34-1.92,2.78l-12.03,4.54v-3.1l12.03,4.54c1.15.44,1.92,1.54,1.92,2.78h0c0,2.1-2.12,3.53-4.07,2.76Z"/>
        <path class="cls-15" d="M86.67,130.59l6.65-26.61c.33-1.32,1.52-2.25,2.88-2.25h.2c1.93,0,3.35,1.81,2.88,3.69l-6.65,26.61c-.33,1.32-1.52,2.25-2.88,2.25h-.2c-1.93,0-3.35-1.81-2.88-3.69Z"/>
        <path class="cls-15" d="M101.75,112.82h0c0-2.1,2.12-3.53,4.07-2.76l15.03,6.01v5.04l-15.03,6.01c-1.95.78-4.07-.66-4.07-2.76h0c0-1.23.76-2.34,1.92-2.78l12.03-4.54v3.1l-12.03-4.54c-1.15-.44-1.92-1.54-1.92-2.78Z"/>
      </g>
    </g>
  </g>
</svg>